<?xml version="1.0" standalone="no"?>
<!DOCTYPE svg PUBLIC "-//W3C//DTD SVG 20010904//EN"
 "http://www.w3.org/TR/2001/REC-SVG-20010904/DTD/svg10.dtd">
<svg version="1.0" xmlns="http://www.w3.org/2000/svg"
 width="96.000000pt" height="96.000000pt" viewBox="0 0 96.000000 96.000000"
 preserveAspectRatio="xMidYMid meet">
<metadata>
Created by potrace 1.14, written by Peter Selinger 2001-2017
</metadata>
<g transform="translate(0.000000,96.000000) scale(0.100000,-0.100000)"
fill="#000000" stroke="none">
<path d="M415 740 c-10 -17 7 -33 125 -112 l109 -73 1 -92 c0 -57 4 -93 10
-93 6 0 28 12 50 26 40 26 40 27 40 90 0 57 2 63 22 66 14 2 -35 33 -157 98
-214 113 -192 103 -200 90z"/>
<path d="M372 518 c3 -29 6 -33 33 -33 27 0 30 4 33 33 3 31 2 32 -33 32 -35
0 -36 -1 -33 -32z"/>
<path d="M472 518 c3 -29 7 -33 36 -36 31 -3 32 -2 32 32 0 35 -1 36 -36 36
-34 0 -35 -1 -32 -32z"/>
<path d="M224 494 c-95 -104 -90 -207 12 -259 30 -15 58 -20 124 -19 137 1
291 63 388 157 61 59 75 89 21 45 -94 -76 -214 -118 -334 -118 -115 1 -176 32
-196 100 -10 31 -8 44 9 83 12 26 18 47 15 47 -3 0 -20 -16 -39 -36z"/>
<path d="M372 423 c3 -35 5 -38 33 -38 28 0 30 3 30 35 0 32 -3 35 -33 38 -33
3 -33 3 -30 -35z"/>
<path d="M474 446 c-3 -8 -4 -25 -2 -38 2 -18 9 -23 33 -23 27 0 30 3 33 38 3
35 2 37 -28 37 -17 0 -33 -6 -36 -14z"/>
</g>
</svg>
