<?xml version="1.0" standalone="no"?>
<!DOCTYPE svg PUBLIC "-//W3C//DTD SVG 20010904//EN"
 "http://www.w3.org/TR/2001/REC-SVG-20010904/DTD/svg10.dtd">
<svg version="1.0" xmlns="http://www.w3.org/2000/svg"
 width="121.000000pt" height="121.000000pt" viewBox="0 0 121.000000 121.000000"
 preserveAspectRatio="xMidYMid meet">
<metadata>
Created by potrace 1.14, written by Peter Selinger 2001-2017
</metadata>
<g transform="translate(0.000000,121.000000) scale(0.100000,-0.100000)"
fill="#000000" stroke="none">
<path d="M530 932 c1 -23 16 -37 107 -97 58 -38 127 -84 154 -102 l48 -32 3
-121 3 -120 50 33 50 32 3 88 3 87 32 0 c29 0 26 4 -38 36 -38 20 -109 58
-157 85 -48 27 -90 49 -93 49 -2 0 -41 20 -85 44 l-80 45 0 -27z"/>
<path d="M460 655 l0 -45 45 0 45 0 0 45 0 45 -45 0 -45 0 0 -45z"/>
<path d="M600 654 l0 -45 43 3 c42 3 42 3 45 46 l3 42 -45 0 -46 0 0 -46z"/>
<path d="M260 608 c-50 -63 -66 -93 -75 -141 -25 -131 72 -209 260 -209 201 1
451 118 567 265 36 46 26 42 -42 -14 -109 -90 -264 -143 -420 -144 -97 0 -110
2 -165 30 -101 50 -129 125 -85 223 26 57 9 53 -40 -10z"/>
<path d="M462 528 c3 -43 3 -43 46 -46 l42 -3 0 45 0 46 -46 0 -45 0 3 -42z"/>
<path d="M600 524 l0 -45 43 3 c42 3 42 3 45 46 l3 42 -45 0 -46 0 0 -46z"/>
</g>
</svg>
